{"asset":{"version":"2.0","generator":"babylon.js glTF exporter for Maya 2018 v20200228.3 (with minor hand modifications)"},"scene":0,"scenes":[{"nodes":[0,1,2,3,4,5]}],"nodes":[{"mesh":0,"name":"Hose_low"},{"mesh":1,"name":"RubberWood_low"},{"mesh":2,"name":"GlassPlastic_low"},{"mesh":3,"name":"MetalParts_low"},{"mesh":4,"name":"LeatherParts_low"},{"mesh":5,"name":"Lenses_low"}],"meshes":[{"primitives":[{"attributes":{"POSITION":1,"TANGENT":2,"NORMAL":3,"TEXCOORD_0":4},"indices":0,"material":0,"mode":4}],"name":"Hose_low"},{"primitives":[{"attributes":{"POSITION":6,"TANGENT":7,"NORMAL":8,"TEXCOORD_0":9},"indices":5,"material":1,"mode":4}],"name":"RubberWood_low"},{"primitives":[{"attributes":{"POSITION":11,"TANGENT":12,"NORMAL":13,"TEXCOORD_0":14},"indices":10,"material":2,"mode":4}],"name":"GlassPlastic_low"},{"primitives":[{"attributes":{"POSITION":16,"TANGENT":17,"NORMAL":18,"TEXCOORD_0":19},"indices":15,"material":3,"mode":4}],"name":"MetalParts_low"},{"primitives":[{"attributes":{"POSITION":21,"TANGENT":22,"NORMAL":23,"TEXCOORD_0":24},"indices":20,"material":4,"mode":4}],"name":"LeatherParts_low"},{"primitives":[{"attributes":{"POSITION":26,"TANGENT":27,"NORMAL":28,"TEXCOORD_0":29},"indices":25,"material":5,"mode":4}],"name":"Lenses_low"}],"accessors":[{"bufferView":0,"componentType":5123,"count":59040,"type":"SCALAR","name":"accessorIndices","byteOffset":0},{"bufferView":1,"componentType":5126,"count":10472,"max":[0.10810829,0.356580257,0.190409869],"min":[-0.07221258,0.104120225,-0.088394776],"type":"VEC3","name":"accessorPositions","byteOffset":0},{"bufferView":2,"componentType":5126,"count":10472,"type":"VEC4","name":"accessorTangents","byteOffset":0},{"bufferView":1,"byteOffset":125664,"componentType":5126,"count":10472,"type":"VEC3","name":"accessorNormals"},{"bufferView":3,"componentType":5126,"count":10472,"type":"VEC2","name":"accessorUVs","byteOffset":0},{"bufferView":0,"byteOffset":118080,"componentType":5123,"count":72534,"type":"SCALAR","name":"accessorIndices"},{"bufferView":1,"byteOffset":251328,"componentType":5126,"count":13638,"max":[0.162940636,0.7025226,0.200029165],"min":[-0.158857465,-0.0000214242937,-0.171545789],"type":"VEC3","name":"accessorPositions"},{"bufferView":2,"byteOffset":167552,"componentType":5126,"count":13638,"type":"VEC4","name":"accessorTangents"},{"bufferView":1,"byteOffset":414984,"componentType":5126,"count":13638,"type":"VEC3","name":"accessorNormals"},{"bufferView":3,"byteOffset":83776,"componentType":5126,"count":13638,"type":"VEC2","name":"accessorUVs"},{"bufferView":0,"byteOffset":263148,"componentType":5123,"count":24408,"type":"SCALAR","name":"accessorIndices"},{"bufferView":1,"byteOffset":578640,"componentType":5126,"count":4676,"max":[0.140494063,0.61828655,0.147373646],"min":[-0.140846014,0.440957,-0.107818365],"type":"VEC3","name":"accessorPositions"},{"bufferView":2,"byteOffset":385760,"componentType":5126,"count":4676,"type":"VEC4","name":"accessorTangents"},{"bufferView":1,"byteOffset":634752,"componentType":5126,"count":4676,"type":"VEC3","name":"accessorNormals"},{"bufferView":3,"byteOffset":192880,"componentType":5126,"count":4676,"type":"VEC2","name":"accessorUVs"},{"bufferView":0,"byteOffset":311964,"componentType":5123,"count":60288,"type":"SCALAR","name":"accessorIndices"},{"bufferView":1,"byteOffset":690864,"componentType":5126,"count":13636,"max":[0.132708371,0.6024364,0.199477077],"min":[-0.203642711,0.02116075,-0.147512689],"type":"VEC3","name":"accessorPositions"},{"bufferView":2,"byteOffset":460576,"componentType":5126,"count":13636,"type":"VEC4","name":"accessorTangents"},{"bufferView":1,"byteOffset":854496,"componentType":5126,"count":13636,"type":"VEC3","name":"accessorNormals"},{"bufferView":3,"byteOffset":230288,"componentType":5126,"count":13636,"type":"VEC2","name":"accessorUVs"},{"bufferView":0,"byteOffset":432540,"componentType":5123,"count":65688,"type":"SCALAR","name":"accessorIndices"},{"bufferView":1,"byteOffset":1018128,"componentType":5126,"count":12534,"max":[0.124933377,0.716000438,0.129168555],"min":[-0.125863016,0.2958266,-0.1541516],"type":"VEC3","name":"accessorPositions"},{"bufferView":2,"byteOffset":678752,"componentType":5126,"count":12534,"type":"VEC4","name":"accessorTangents"},{"bufferView":1,"byteOffset":1168536,"componentType":5126,"count":12534,"type":"VEC3","name":"accessorNormals"},{"bufferView":3,"byteOffset":339376,"componentType":5126,"count":12534,"type":"VEC2","name":"accessorUVs"},{"bufferView":0,"byteOffset":563916,"componentType":5123,"count":2208,"type":"SCALAR","name":"accessorIndices"},{"bufferView":1,"byteOffset":1318944,"componentType":5126,"count":436,"max":[0.101920746,0.5936986,0.152926728],"min":[-0.101920947,0.5300429,0.090174824],"type":"VEC3","name":"accessorPositions"},{"bufferView":2,"byteOffset":879296,"componentType":5126,"count":436,"type":"VEC4","name":"accessorTangents"},{"bufferView":1,"byteOffset":1324176,"componentType":5126,"count":436,"type":"VEC3","name":"accessorNormals"},{"bufferView":3,"byteOffset":439648,"componentType":5126,"count":436,"type":"VEC2","name":"accessorUVs"}],"bufferViews":[{"buffer":0,"byteLength":568332,"name":"bufferViewScalar","byteOffset":0,"target":34963},{"buffer":0,"byteOffset":568332,"byteLength":1329408,"byteStride":12,"name":"bufferViewFloatVec3","target":34962},{"buffer":0,"byteOffset":1897740,"byteLength":886272,"byteStride":16,"name":"bufferViewFloatVec4","target":34962},{"buffer":0,"byteOffset":2784012,"byteLength":443136,"byteStride":8,"name":"bufferViewFloatVec2","target":34962}],"buffers":[{"name":"FlightHelmet","byteLength":3227148,"uri":"FlightHelmet.bin"},{"name":"FlightHelmet_Materials_LensesMat_Normal.astc","byteLength":416,"uri":"FlightHelmet_Materials_LensesMat_Normal.astc.bin"},{"name":"FlightHelmet_Materials_LensesMat_Normal.bc7","byteLength":440,"uri":"FlightHelmet_Materials_LensesMat_Normal.bc7.bin"},{"name":"FlightHelmet_Materials_LensesMat_Normal.dxt","byteLength":230,"uri":"FlightHelmet_Materials_LensesMat_Normal.dxt.bin"},{"name":"FlightHelmet_Materials_LensesMat_Normal.pvrtc","byteLength":350,"uri":"FlightHelmet_Materials_LensesMat_Normal.pvrtc.bin"},{"name":"FlightHelmet_Materials_LensesMat_Normal.etc1","byteLength":178,"uri":"FlightHelmet_Materials_LensesMat_Normal.etc1.bin"},{"name":"FlightHelmet_Materials_LensesMat_BaseColor.astc","byteLength":281150,"uri":"FlightHelmet_Materials_LensesMat_BaseColor.astc.bin"},{"name":"FlightHelmet_Materials_LensesMat_BaseColor.bc7","byteLength":295803,"uri":"FlightHelmet_Materials_LensesMat_BaseColor.bc7.bin"},{"name":"FlightHelmet_Materials_LensesMat_BaseColor.dxt","byteLength":310708,"uri":"FlightHelmet_Materials_LensesMat_BaseColor.dxt.bin"},{"name":"FlightHelmet_Materials_LensesMat_BaseColor.pvrtc","byteLength":83276,"uri":"FlightHelmet_Materials_LensesMat_BaseColor.pvrtc.bin"},{"name":"FlightHelmet_Materials_LensesMat_BaseColor.etc1","byteLength":92680,"uri":"FlightHelmet_Materials_LensesMat_BaseColor.etc1.bin"},{"name":"FlightHelmet_Materials_LensesMat_OcclusionRoughMetal.astc","byteLength":450283,"uri":"FlightHelmet_Materials_LensesMat_OcclusionRoughMetal.astc.bin"},{"name":"FlightHelmet_Materials_LensesMat_OcclusionRoughMetal.bc7","byteLength":436973,"uri":"FlightHelmet_Materials_LensesMat_OcclusionRoughMetal.bc7.bin"},{"name":"FlightHelmet_Materials_LensesMat_OcclusionRoughMetal.dxt","byteLength":202381,"uri":"FlightHelmet_Materials_LensesMat_OcclusionRoughMetal.dxt.bin"},{"name":"FlightHelmet_Materials_LensesMat_OcclusionRoughMetal.pvrtc","byteLength":200073,"uri":"FlightHelmet_Materials_LensesMat_OcclusionRoughMetal.pvrtc.bin"},{"name":"FlightHelmet_Materials_LensesMat_OcclusionRoughMetal.etc1","byteLength":174085,"uri":"FlightHelmet_Materials_LensesMat_OcclusionRoughMetal.etc1.bin"},{"name":"FlightHelmet_Materials_GlassPlasticMat_BaseColor.astc","byteLength":1295221,"uri":"FlightHelmet_Materials_GlassPlasticMat_BaseColor.astc.bin"},{"name":"FlightHelmet_Materials_GlassPlasticMat_BaseColor.bc7","byteLength":1316997,"uri":"FlightHelmet_Materials_GlassPlasticMat_BaseColor.bc7.bin"},{"name":"FlightHelmet_Materials_GlassPlasticMat_BaseColor.dxt","byteLength":579804,"uri":"FlightHelmet_Materials_GlassPlasticMat_BaseColor.dxt.bin"},{"name":"FlightHelmet_Materials_GlassPlasticMat_BaseColor.pvrtc","byteLength":511410,"uri":"FlightHelmet_Materials_GlassPlasticMat_BaseColor.pvrtc.bin"},{"name":"FlightHelmet_Materials_GlassPlasticMat_BaseColor.etc1","byteLength":466581,"uri":"FlightHelmet_Materials_GlassPlasticMat_BaseColor.etc1.bin"},{"name":"FlightHelmet_Materials_GlassPlasticMat_OcclusionRoughMetal.astc","byteLength":2610020,"uri":"FlightHelmet_Materials_GlassPlasticMat_OcclusionRoughMetal.astc.bin"},{"name":"FlightHelmet_Materials_GlassPlasticMat_OcclusionRoughMetal.bc7","byteLength":2523338,"uri":"FlightHelmet_Materials_GlassPlasticMat_OcclusionRoughMetal.bc7.bin"},{"name":"FlightHelmet_Materials_GlassPlasticMat_OcclusionRoughMetal.dxt","byteLength":1195190,"uri":"FlightHelmet_Materials_GlassPlasticMat_OcclusionRoughMetal.dxt.bin"},{"name":"FlightHelmet_Materials_GlassPlasticMat_OcclusionRoughMetal.pvrtc","byteLength":971692,"uri":"FlightHelmet_Materials_GlassPlasticMat_OcclusionRoughMetal.pvrtc.bin"},{"name":"FlightHelmet_Materials_GlassPlasticMat_OcclusionRoughMetal.etc1","byteLength":927574,"uri":"FlightHelmet_Materials_GlassPlasticMat_OcclusionRoughMetal.etc1.bin"},{"name":"FlightHelmet_Materials_LeatherPartsMat_Normal.astc","byteLength":2639039,"uri":"FlightHelmet_Materials_LeatherPartsMat_Normal.astc.bin"},{"name":"FlightHelmet_Materials_LeatherPartsMat_Normal.bc7","byteLength":2610822,"uri":"FlightHelmet_Materials_LeatherPartsMat_Normal.bc7.bin"},{"name":"FlightHelmet_Materials_LeatherPartsMat_Normal.dxt","byteLength":1283322,"uri":"FlightHelmet_Materials_LeatherPartsMat_Normal.dxt.bin"},{"name":"FlightHelmet_Materials_LeatherPartsMat_Normal.pvrtc","byteLength":1032870,"uri":"FlightHelmet_Materials_LeatherPartsMat_Normal.pvrtc.bin"},{"name":"FlightHelmet_Materials_LeatherPartsMat_Normal.etc1","byteLength":1255287,"uri":"FlightHelmet_Materials_LeatherPartsMat_Normal.etc1.bin"},{"name":"FlightHelmet_Materials_MetalPartsMat_OcclusionRoughMetal.astc","byteLength":1885698,"uri":"FlightHelmet_Materials_MetalPartsMat_OcclusionRoughMetal.astc.bin"},{"name":"FlightHelmet_Materials_MetalPartsMat_OcclusionRoughMetal.bc7","byteLength":1941194,"uri":"FlightHelmet_Materials_MetalPartsMat_OcclusionRoughMetal.bc7.bin"},{"name":"FlightHelmet_Materials_MetalPartsMat_OcclusionRoughMetal.dxt","byteLength":985512,"uri":"FlightHelmet_Materials_MetalPartsMat_OcclusionRoughMetal.dxt.bin"},{"name":"FlightHelmet_Materials_MetalPartsMat_OcclusionRoughMetal.pvrtc","byteLength":953510,"uri":"FlightHelmet_Materials_MetalPartsMat_OcclusionRoughMetal.pvrtc.bin"},{"name":"FlightHelmet_Materials_MetalPartsMat_OcclusionRoughMetal.etc1","byteLength":787239,"uri":"FlightHelmet_Materials_MetalPartsMat_OcclusionRoughMetal.etc1.bin"},{"name":"FlightHelmet_Materials_RubberWoodMat_Normal.astc","byteLength":2383314,"uri":"FlightHelmet_Materials_RubberWoodMat_Normal.astc.bin"},{"name":"FlightHelmet_Materials_RubberWoodMat_Normal.bc7","byteLength":2350940,"uri":"FlightHelmet_Materials_RubberWoodMat_Normal.bc7.bin"},{"name":"FlightHelmet_Materials_RubberWoodMat_Normal.dxt","byteLength":949402,"uri":"FlightHelmet_Materials_RubberWoodMat_Normal.dxt.bin"},{"name":"FlightHelmet_Materials_RubberWoodMat_Normal.pvrtc","byteLength":730257,"uri":"FlightHelmet_Materials_RubberWoodMat_Normal.pvrtc.bin"},{"name":"FlightHelmet_Materials_RubberWoodMat_Normal.etc1","byteLength":707315,"uri":"FlightHelmet_Materials_RubberWoodMat_Normal.etc1.bin"},{"name":"FlightHelmet_Materials_RubberWoodMat_BaseColor.astc","byteLength":1950925,"uri":"FlightHelmet_Materials_RubberWoodMat_BaseColor.astc.bin"},{"name":"FlightHelmet_Materials_RubberWoodMat_BaseColor.bc7","byteLength":1947220,"uri":"FlightHelmet_Materials_RubberWoodMat_BaseColor.bc7.bin"},{"name":"FlightHelmet_Materials_RubberWoodMat_BaseColor.dxt","byteLength":871762,"uri":"FlightHelmet_Materials_RubberWoodMat_BaseColor.dxt.bin"},{"name":"FlightHelmet_Materials_RubberWoodMat_BaseColor.pvrtc","byteLength":787006,"uri":"FlightHelmet_Materials_RubberWoodMat_BaseColor.pvrtc.bin"},{"name":"FlightHelmet_Materials_RubberWoodMat_BaseColor.etc1","byteLength":786657,"uri":"FlightHelmet_Materials_RubberWoodMat_BaseColor.etc1.bin"},{"name":"FlightHelmet_Materials_MetalPartsMat_BaseColor.astc","byteLength":1438477,"uri":"FlightHelmet_Materials_MetalPartsMat_BaseColor.astc.bin"},{"name":"FlightHelmet_Materials_MetalPartsMat_BaseColor.bc7","byteLength":1463289,"uri":"FlightHelmet_Materials_MetalPartsMat_BaseColor.bc7.bin"},{"name":"FlightHelmet_Materials_MetalPartsMat_BaseColor.dxt","byteLength":750960,"uri":"FlightHelmet_Materials_MetalPartsMat_BaseColor.dxt.bin"},{"name":"FlightHelmet_Materials_MetalPartsMat_BaseColor.pvrtc","byteLength":760677,"uri":"FlightHelmet_Materials_MetalPartsMat_BaseColor.pvrtc.bin"},{"name":"FlightHelmet_Materials_MetalPartsMat_BaseColor.etc1","byteLength":728234,"uri":"FlightHelmet_Materials_MetalPartsMat_BaseColor.etc1.bin"},{"name":"FlightHelmet_Materials_LeatherPartsMat_OcclusionRoughMetal.astc","byteLength":2850609,"uri":"FlightHelmet_Materials_LeatherPartsMat_OcclusionRoughMetal.astc.bin"},{"name":"FlightHelmet_Materials_LeatherPartsMat_OcclusionRoughMetal.bc7","byteLength":2763656,"uri":"FlightHelmet_Materials_LeatherPartsMat_OcclusionRoughMetal.bc7.bin"},{"name":"FlightHelmet_Materials_LeatherPartsMat_OcclusionRoughMetal.dxt","byteLength":1351506,"uri":"FlightHelmet_Materials_LeatherPartsMat_OcclusionRoughMetal.dxt.bin"},{"name":"FlightHelmet_Materials_LeatherPartsMat_OcclusionRoughMetal.pvrtc","byteLength":1188802,"uri":"FlightHelmet_Materials_LeatherPartsMat_OcclusionRoughMetal.pvrtc.bin"},{"name":"FlightHelmet_Materials_LeatherPartsMat_OcclusionRoughMetal.etc1","byteLength":1316926,"uri":"FlightHelmet_Materials_LeatherPartsMat_OcclusionRoughMetal.etc1.bin"},{"name":"FlightHelmet_Materials_RubberWoodMat_OcclusionRoughMetal.astc","byteLength":2328893,"uri":"FlightHelmet_Materials_RubberWoodMat_OcclusionRoughMetal.astc.bin"},{"name":"FlightHelmet_Materials_RubberWoodMat_OcclusionRoughMetal.bc7","byteLength":2303404,"uri":"FlightHelmet_Materials_RubberWoodMat_OcclusionRoughMetal.bc7.bin"},{"name":"FlightHelmet_Materials_RubberWoodMat_OcclusionRoughMetal.dxt","byteLength":1140231,"uri":"FlightHelmet_Materials_RubberWoodMat_OcclusionRoughMetal.dxt.bin"},{"name":"FlightHelmet_Materials_RubberWoodMat_OcclusionRoughMetal.pvrtc","byteLength":1003495,"uri":"FlightHelmet_Materials_RubberWoodMat_OcclusionRoughMetal.pvrtc.bin"},{"name":"FlightHelmet_Materials_RubberWoodMat_OcclusionRoughMetal.etc1","byteLength":1017607,"uri":"FlightHelmet_Materials_RubberWoodMat_OcclusionRoughMetal.etc1.bin"},{"name":"FlightHelmet_Materials_GlassPlasticMat_Normal.astc","byteLength":1775020,"uri":"FlightHelmet_Materials_GlassPlasticMat_Normal.astc.bin"},{"name":"FlightHelmet_Materials_GlassPlasticMat_Normal.bc7","byteLength":1778218,"uri":"FlightHelmet_Materials_GlassPlasticMat_Normal.bc7.bin"},{"name":"FlightHelmet_Materials_GlassPlasticMat_Normal.dxt","byteLength":766437,"uri":"FlightHelmet_Materials_GlassPlasticMat_Normal.dxt.bin"},{"name":"FlightHelmet_Materials_GlassPlasticMat_Normal.pvrtc","byteLength":605387,"uri":"FlightHelmet_Materials_GlassPlasticMat_Normal.pvrtc.bin"},{"name":"FlightHelmet_Materials_GlassPlasticMat_Normal.etc1","byteLength":623313,"uri":"FlightHelmet_Materials_GlassPlasticMat_Normal.etc1.bin"},{"name":"FlightHelmet_Materials_MetalPartsMat_Normal.astc","byteLength":2429585,"uri":"FlightHelmet_Materials_MetalPartsMat_Normal.astc.bin"},{"name":"FlightHelmet_Materials_MetalPartsMat_Normal.bc7","byteLength":2380478,"uri":"FlightHelmet_Materials_MetalPartsMat_Normal.bc7.bin"},{"name":"FlightHelmet_Materials_MetalPartsMat_Normal.dxt","byteLength":947524,"uri":"FlightHelmet_Materials_MetalPartsMat_Normal.dxt.bin"},{"name":"FlightHelmet_Materials_MetalPartsMat_Normal.pvrtc","byteLength":639161,"uri":"FlightHelmet_Materials_MetalPartsMat_Normal.pvrtc.bin"},{"name":"FlightHelmet_Materials_MetalPartsMat_Normal.etc1","byteLength":686682,"uri":"FlightHelmet_Materials_MetalPartsMat_Normal.etc1.bin"},{"name":"FlightHelmet_Materials_LeatherPartsMat_BaseColor.astc","byteLength":2271770,"uri":"FlightHelmet_Materials_LeatherPartsMat_BaseColor.astc.bin"},{"name":"FlightHelmet_Materials_LeatherPartsMat_BaseColor.bc7","byteLength":2264438,"uri":"FlightHelmet_Materials_LeatherPartsMat_BaseColor.bc7.bin"},{"name":"FlightHelmet_Materials_LeatherPartsMat_BaseColor.dxt","byteLength":1122612,"uri":"FlightHelmet_Materials_LeatherPartsMat_BaseColor.dxt.bin"},{"name":"FlightHelmet_Materials_LeatherPartsMat_BaseColor.pvrtc","byteLength":994994,"uri":"FlightHelmet_Materials_LeatherPartsMat_BaseColor.pvrtc.bin"},{"name":"FlightHelmet_Materials_LeatherPartsMat_BaseColor.etc1","byteLength":1116176,"uri":"FlightHelmet_Materials_LeatherPartsMat_BaseColor.etc1.bin"}],"materials":[{"pbrMetallicRoughness":{"baseColorTexture":{"index":2,"texCoord":0},"metallicRoughnessTexture":{"index":1,"texCoord":0},"baseColorFactor":[1,1,1,1],"metallicFactor":1,"roughnessFactor":1},"normalTexture":{"index":0,"texCoord":0},"occlusionTexture":{"index":1,"texCoord":0},"doubleSided":true,"name":"HoseMat","emissiveFactor":[0,0,0],"alphaMode":"OPAQUE"},{"pbrMetallicRoughness":{"baseColorTexture":{"index":2,"texCoord":0},"metallicRoughnessTexture":{"index":1,"texCoord":0},"baseColorFactor":[1,1,1,1],"metallicFactor":1,"roughnessFactor":1},"normalTexture":{"index":0,"texCoord":0},"occlusionTexture":{"index":1,"texCoord":0},"name":"RubberWoodMat","emissiveFactor":[0,0,0],"alphaMode":"OPAQUE","doubleSided":false},{"pbrMetallicRoughness":{"baseColorTexture":{"index":5,"texCoord":0},"metallicRoughnessTexture":{"index":4,"texCoord":0},"baseColorFactor":[1,1,1,1],"metallicFactor":1,"roughnessFactor":1},"normalTexture":{"index":3,"texCoord":0},"occlusionTexture":{"index":4,"texCoord":0},"name":"GlassPlasticMat","emissiveFactor":[0,0,0],"alphaMode":"OPAQUE","doubleSided":false},{"pbrMetallicRoughness":{"baseColorTexture":{"index":8,"texCoord":0},"metallicRoughnessTexture":{"index":7,"texCoord":0},"baseColorFactor":[1,1,1,1],"metallicFactor":1,"roughnessFactor":1},"normalTexture":{"index":6,"texCoord":0},"occlusionTexture":{"index":7,"texCoord":0},"name":"MetalPartsMat","emissiveFactor":[0,0,0],"alphaMode":"OPAQUE","doubleSided":false},{"pbrMetallicRoughness":{"baseColorTexture":{"index":11,"texCoord":0},"metallicRoughnessTexture":{"index":10,"texCoord":0},"baseColorFactor":[1,1,1,1],"metallicFactor":1,"roughnessFactor":1},"normalTexture":{"index":9,"texCoord":0},"occlusionTexture":{"index":10,"texCoord":0},"name":"LeatherPartsMat","emissiveFactor":[0,0,0],"alphaMode":"OPAQUE","doubleSided":false},{"pbrMetallicRoughness":{"baseColorTexture":{"index":14,"texCoord":0},"metallicRoughnessTexture":{"index":13,"texCoord":0},"baseColorFactor":[1,1,1,1],"metallicFactor":1,"roughnessFactor":1},"normalTexture":{"index":12,"texCoord":0},"occlusionTexture":{"index":13,"texCoord":0},"alphaMode":"BLEND","name":"LensesMat","emissiveFactor":[0,0,0],"doubleSided":false}],"textures":[{"sampler":0,"source":0,"name":"FlightHelmet_Materials_RubberWoodMat_Normal.png","extensions":{"EXT_gpu_compressed_texture":{"astc":36,"bc7":37,"dxt":38,"pvrtc":39,"etc1":40,"width":2048,"height":2048,"hasAlpha":0,"compress":1}}},{"sampler":0,"source":1,"name":"FlightHelmet_Materials_RubberWoodMat_OcclusionRoughMetal.png","extensions":{"EXT_gpu_compressed_texture":{"astc":56,"bc7":57,"dxt":58,"pvrtc":59,"etc1":60,"width":2048,"height":2048,"hasAlpha":0,"compress":1}}},{"sampler":0,"source":2,"name":"FlightHelmet_Materials_RubberWoodMat_BaseColor.png","extensions":{"EXT_gpu_compressed_texture":{"astc":41,"bc7":42,"dxt":43,"pvrtc":44,"etc1":45,"width":2048,"height":2048,"hasAlpha":0,"compress":1}}},{"sampler":0,"source":3,"name":"FlightHelmet_Materials_GlassPlasticMat_Normal.png","extensions":{"EXT_gpu_compressed_texture":{"astc":61,"bc7":62,"dxt":63,"pvrtc":64,"etc1":65,"width":2048,"height":2048,"hasAlpha":0,"compress":1}}},{"sampler":0,"source":4,"name":"FlightHelmet_Materials_GlassPlasticMat_OcclusionRoughMetal.png","extensions":{"EXT_gpu_compressed_texture":{"astc":21,"bc7":22,"dxt":23,"pvrtc":24,"etc1":25,"width":2048,"height":2048,"hasAlpha":0,"compress":1}}},{"sampler":0,"source":5,"name":"FlightHelmet_Materials_GlassPlasticMat_BaseColor.png","extensions":{"EXT_gpu_compressed_texture":{"astc":16,"bc7":17,"dxt":18,"pvrtc":19,"etc1":20,"width":2048,"height":2048,"hasAlpha":0,"compress":1}}},{"sampler":0,"source":6,"name":"FlightHelmet_Materials_MetalPartsMat_Normal.png","extensions":{"EXT_gpu_compressed_texture":{"astc":66,"bc7":67,"dxt":68,"pvrtc":69,"etc1":70,"width":2048,"height":2048,"hasAlpha":0,"compress":1}}},{"sampler":0,"source":7,"name":"FlightHelmet_Materials_MetalPartsMat_OcclusionRoughMetal.png","extensions":{"EXT_gpu_compressed_texture":{"astc":31,"bc7":32,"dxt":33,"pvrtc":34,"etc1":35,"width":2048,"height":2048,"hasAlpha":0,"compress":1}}},{"sampler":0,"source":8,"name":"FlightHelmet_Materials_MetalPartsMat_BaseColor.png","extensions":{"EXT_gpu_compressed_texture":{"astc":46,"bc7":47,"dxt":48,"pvrtc":49,"etc1":50,"width":2048,"height":2048,"hasAlpha":0,"compress":1}}},{"sampler":0,"source":9,"name":"FlightHelmet_Materials_LeatherPartsMat_Normal.png","extensions":{"EXT_gpu_compressed_texture":{"astc":26,"bc7":27,"dxt":28,"pvrtc":29,"etc1":30,"width":2048,"height":2048,"hasAlpha":0,"compress":1}}},{"sampler":0,"source":10,"name":"FlightHelmet_Materials_LeatherPartsMat_OcclusionRoughMetal.png","extensions":{"EXT_gpu_compressed_texture":{"astc":51,"bc7":52,"dxt":53,"pvrtc":54,"etc1":55,"width":2048,"height":2048,"hasAlpha":0,"compress":1}}},{"sampler":0,"source":11,"name":"FlightHelmet_Materials_LeatherPartsMat_BaseColor.png","extensions":{"EXT_gpu_compressed_texture":{"astc":71,"bc7":72,"dxt":73,"pvrtc":74,"etc1":75,"width":2048,"height":2048,"hasAlpha":0,"compress":1}}},{"sampler":0,"source":12,"name":"FlightHelmet_Materials_LensesMat_Normal.png","extensions":{"EXT_gpu_compressed_texture":{"astc":1,"bc7":2,"dxt":3,"pvrtc":4,"etc1":5,"width":1024,"height":1024,"hasAlpha":0,"compress":1}}},{"sampler":0,"source":13,"name":"FlightHelmet_Materials_LensesMat_OcclusionRoughMetal.png","extensions":{"EXT_gpu_compressed_texture":{"astc":11,"bc7":12,"dxt":13,"pvrtc":14,"etc1":15,"width":1024,"height":1024,"hasAlpha":0,"compress":1}}},{"sampler":0,"source":14,"name":"FlightHelmet_Materials_LensesMat_BaseColor.png","extensions":{"EXT_gpu_compressed_texture":{"astc":6,"bc7":7,"dxt":8,"pvrtc":9,"etc1":10,"width":1024,"height":1024,"hasAlpha":1,"compress":1}}}],"images":[{"name":"FlightHelmet_Materials_RubberWoodMat_Normal","mimeType":"image/png","uri":"FlightHelmet_Materials_RubberWoodMat_Normal.png"},{"name":"FlightHelmet_Materials_RubberWoodMat_OcclusionRoughMetal","mimeType":"image/png","uri":"FlightHelmet_Materials_RubberWoodMat_OcclusionRoughMetal.png"},{"name":"FlightHelmet_Materials_RubberWoodMat_BaseColor","mimeType":"image/png","uri":"FlightHelmet_Materials_RubberWoodMat_BaseColor.png"},{"name":"FlightHelmet_Materials_GlassPlasticMat_Normal","mimeType":"image/png","uri":"FlightHelmet_Materials_GlassPlasticMat_Normal.png"},{"name":"FlightHelmet_Materials_GlassPlasticMat_OcclusionRoughMetal","mimeType":"image/png","uri":"FlightHelmet_Materials_GlassPlasticMat_OcclusionRoughMetal.png"},{"name":"FlightHelmet_Materials_GlassPlasticMat_BaseColor","mimeType":"image/png","uri":"FlightHelmet_Materials_GlassPlasticMat_BaseColor.png"},{"name":"FlightHelmet_Materials_MetalPartsMat_Normal","mimeType":"image/png","uri":"FlightHelmet_Materials_MetalPartsMat_Normal.png"},{"name":"FlightHelmet_Materials_MetalPartsMat_OcclusionRoughMetal","mimeType":"image/png","uri":"FlightHelmet_Materials_MetalPartsMat_OcclusionRoughMetal.png"},{"name":"FlightHelmet_Materials_MetalPartsMat_BaseColor","mimeType":"image/png","uri":"FlightHelmet_Materials_MetalPartsMat_BaseColor.png"},{"name":"FlightHelmet_Materials_LeatherPartsMat_Normal","mimeType":"image/png","uri":"FlightHelmet_Materials_LeatherPartsMat_Normal.png"},{"name":"FlightHelmet_Materials_LeatherPartsMat_OcclusionRoughMetal","mimeType":"image/png","uri":"FlightHelmet_Materials_LeatherPartsMat_OcclusionRoughMetal.png"},{"name":"FlightHelmet_Materials_LeatherPartsMat_BaseColor","mimeType":"image/png","uri":"FlightHelmet_Materials_LeatherPartsMat_BaseColor.png"},{"name":"FlightHelmet_Materials_LensesMat_Normal","mimeType":"image/png","uri":"FlightHelmet_Materials_LensesMat_Normal.png"},{"name":"FlightHelmet_Materials_LensesMat_OcclusionRoughMetal","mimeType":"image/png","uri":"FlightHelmet_Materials_LensesMat_OcclusionRoughMetal.png"},{"name":"FlightHelmet_Materials_LensesMat_BaseColor","mimeType":"image/png","uri":"FlightHelmet_Materials_LensesMat_BaseColor.png"}],"samplers":[{"magFilter":9729,"minFilter":9987,"wrapS":10497,"wrapT":10497}]}