{"accessors":[{"bufferView":0,"componentType":5123,"count":46356,"max":[14555],"min":[0],"type":"SCALAR","byteOffset":0},{"bufferView":1,"componentType":5126,"count":14556,"max":[0.9424954056739807,0.8128451108932495,0.900973916053772],"min":[-0.9474585652351379,-1.18715500831604,-0.9009949564933777],"type":"VEC3","byteOffset":0},{"bufferView":2,"componentType":5126,"count":14556,"max":[1,1,1],"min":[-1,-1,-1],"type":"VEC3","byteOffset":0},{"bufferView":3,"componentType":5126,"count":14556,"max":[0.9999759793281555,1.998665988445282],"min":[0.002448640065267682,1.0005531199858524],"type":"VEC2","byteOffset":0}],"asset":{"generator":"Khronos Blender glTF 2.0 exporter","version":"2.0"},"bufferViews":[{"buffer":0,"byteLength":92712,"byteOffset":0,"target":34963},{"buffer":0,"byteLength":174672,"byteOffset":92712,"target":34962,"byteStride":12},{"buffer":0,"byteLength":174672,"byteOffset":267384,"target":34962,"byteStride":12},{"buffer":0,"byteLength":116448,"byteOffset":442056,"target":34962,"byteStride":8}],"buffers":[{"name":"buffer","byteLength":558504,"uri":"buffer.bin"},{"name":"image2.astc","byteLength":127755,"uri":"image2.astc.bin"},{"name":"image2.bc7","byteLength":131308,"uri":"image2.bc7.bin"},{"name":"image2.dxt","byteLength":59684,"uri":"image2.dxt.bin"},{"name":"image2.pvrtc","byteLength":52815,"uri":"image2.pvrtc.bin"},{"name":"image2.etc1","byteLength":62412,"uri":"image2.etc1.bin"},{"name":"image0.astc","byteLength":4087599,"uri":"image0.astc.bin"},{"name":"image0.bc7","byteLength":4082376,"uri":"image0.bc7.bin"},{"name":"image0.dxt","byteLength":1895815,"uri":"image0.dxt.bin"},{"name":"image0.pvrtc","byteLength":1623956,"uri":"image0.pvrtc.bin"},{"name":"image0.etc1","byteLength":1830413,"uri":"image0.etc1.bin"},{"name":"image3.astc","byteLength":1906941,"uri":"image3.astc.bin"},{"name":"image3.bc7","byteLength":1911893,"uri":"image3.bc7.bin"},{"name":"image3.dxt","byteLength":883589,"uri":"image3.dxt.bin"},{"name":"image3.pvrtc","byteLength":704297,"uri":"image3.pvrtc.bin"},{"name":"image3.etc1","byteLength":867356,"uri":"image3.etc1.bin"},{"name":"image1.astc","byteLength":3992941,"uri":"image1.astc.bin"},{"name":"image1.bc7","byteLength":4003037,"uri":"image1.bc7.bin"},{"name":"image1.dxt","byteLength":1831411,"uri":"image1.dxt.bin"},{"name":"image1.pvrtc","byteLength":1455815,"uri":"image1.pvrtc.bin"},{"name":"image1.etc1","byteLength":1598500,"uri":"image1.etc1.bin"},{"name":"image4.astc","byteLength":1928831,"uri":"image4.astc.bin"},{"name":"image4.bc7","byteLength":1952338,"uri":"image4.bc7.bin"},{"name":"image4.dxt","byteLength":733417,"uri":"image4.dxt.bin"},{"name":"image4.pvrtc","byteLength":480959,"uri":"image4.pvrtc.bin"},{"name":"image4.etc1","byteLength":583080,"uri":"image4.etc1.bin"}],"images":[{"mimeType":"image/jpeg","uri":"image0.jpg"},{"mimeType":"image/jpeg","uri":"image1.jpg"},{"mimeType":"image/jpeg","uri":"image2.jpg"},{"mimeType":"image/jpeg","uri":"image3.jpg"},{"mimeType":"image/jpeg","uri":"image4.jpg"}],"materials":[{"emissiveFactor":[1,1,1],"emissiveTexture":{"index":2,"texCoord":0},"name":"Material_MR","normalTexture":{"index":4,"texCoord":0},"occlusionTexture":{"index":3,"texCoord":0},"pbrMetallicRoughness":{"baseColorTexture":{"index":0,"texCoord":0},"metallicRoughnessTexture":{"index":1,"texCoord":0},"baseColorFactor":[1,1,1,1],"metallicFactor":1,"roughnessFactor":1},"alphaMode":"OPAQUE","doubleSided":false}],"meshes":[{"name":"mesh_helmet_LP_13930damagedHelmet","primitives":[{"attributes":{"NORMAL":2,"POSITION":1,"TEXCOORD_0":3},"indices":0,"material":0,"mode":4}]}],"nodes":[{"mesh":0,"name":"node_damagedHelmet_-6514","rotation":[0.7071068286895752,0,0,0.7071068286895752],"translation":[0,0,0],"scale":[1,1,1]}],"samplers":[{"wrapS":10497,"wrapT":10497}],"scene":0,"scenes":[{"name":"Scene","nodes":[0]}],"textures":[{"sampler":0,"source":0,"extensions":{"EXT_gpu_compressed_texture":{"astc":6,"bc7":7,"dxt":8,"pvrtc":9,"etc1":10,"width":2048,"height":2048,"hasAlpha":0,"bitmapByteLength":935629,"compress":1}}},{"sampler":0,"source":1,"extensions":{"EXT_gpu_compressed_texture":{"astc":16,"bc7":17,"dxt":18,"pvrtc":19,"etc1":20,"width":2048,"height":2048,"hasAlpha":0,"bitmapByteLength":1300661,"compress":1}}},{"sampler":0,"source":2,"extensions":{"EXT_gpu_compressed_texture":{"astc":1,"bc7":2,"dxt":3,"pvrtc":4,"etc1":5,"width":2048,"height":2048,"hasAlpha":0,"bitmapByteLength":97499,"compress":1}}},{"sampler":0,"source":3,"extensions":{"EXT_gpu_compressed_texture":{"astc":11,"bc7":12,"dxt":13,"pvrtc":14,"etc1":15,"width":2048,"height":2048,"hasAlpha":0,"bitmapByteLength":361678,"compress":1}}},{"sampler":0,"source":4,"extensions":{"EXT_gpu_compressed_texture":{"astc":21,"bc7":22,"dxt":23,"pvrtc":24,"etc1":25,"width":2048,"height":2048,"hasAlpha":0,"bitmapByteLength":517757,"compress":1}}}]}